<svg width="44" height="44" viewBox="0 0 44 44" fill="none" xmlns="http://www.w3.org/2000/svg">
<rect width="44" height="44" rx="12" fill="#1F2937"/>
<path fill-rule="evenodd" clip-rule="evenodd" d="M22 17C20.6739 17 19.4021 17.5268 18.4645 18.4645C17.5268 19.4021 17 20.6739 17 22C17 23.3261 17.5268 24.5979 18.4645 25.5355C19.4021 26.4732 20.6739 27 22 27C23.3261 27 24.5979 26.4732 25.5355 25.5355C26.4732 24.5979 27 23.3261 27 22C27 20.6739 26.4732 19.4021 25.5355 18.4645C24.5979 17.5268 23.3261 17 22 17ZM19 22C19 22.7956 19.3161 23.5587 19.8787 24.1213C20.4413 24.6839 21.2044 25 22 25C22.7956 25 23.5587 24.6839 24.1213 24.1213C24.6839 23.5587 25 22.7956 25 22C25 21.2044 24.6839 20.4413 24.1213 19.8787C23.5587 19.3161 22.7956 19 22 19C21.2044 19 20.4413 19.3161 19.8787 19.8787C19.3161 20.4413 19 21.2044 19 22Z" fill="#FDBA74"/>
<path d="M28 15C27.7348 15 27.4804 15.1054 27.2929 15.2929C27.1054 15.4804 27 15.7348 27 16C27 16.2652 27.1054 16.5196 27.2929 16.7071C27.4804 16.8946 27.7348 17 28 17C28.2652 17 28.5196 16.8946 28.7071 16.7071C28.8946 16.5196 29 16.2652 29 16C29 15.7348 28.8946 15.4804 28.7071 15.2929C28.5196 15.1054 28.2652 15 28 15Z" fill="#FDBA74"/>
<path fill-rule="evenodd" clip-rule="evenodd" d="M15 11C13.9391 11 12.9217 11.4214 12.1716 12.1716C11.4214 12.9217 11 13.9391 11 15V29C11 30.0609 11.4214 31.0783 12.1716 31.8284C12.9217 32.5786 13.9391 33 15 33H29C30.0609 33 31.0783 32.5786 31.8284 31.8284C32.5786 31.0783 33 30.0609 33 29V15C33 13.9391 32.5786 12.9217 31.8284 12.1716C31.0783 11.4214 30.0609 11 29 11H15ZM29 13H15C14.4696 13 13.9609 13.2107 13.5858 13.5858C13.2107 13.9609 13 14.4696 13 15V29C13 29.5304 13.2107 30.0391 13.5858 30.4142C13.9609 30.7893 14.4696 31 15 31H29C29.5304 31 30.0391 30.7893 30.4142 30.4142C30.7893 30.0391 31 29.5304 31 29V15C31 14.4696 30.7893 13.9609 30.4142 13.5858C30.0391 13.2107 29.5304 13 29 13Z" fill="#FDBA74"/>
</svg>
