<svg width="44" height="44" viewBox="0 0 44 44" fill="none" xmlns="http://www.w3.org/2000/svg">
<rect width="44" height="44" rx="12" fill="#1F2937"/>
<path d="M23 11H25.7225C25.9205 11.9831 26.465 13.2234 27.4206 14.454C28.3556 15.6599 29.5959 16.5 31.25 16.5V19.25C28.8396 19.25 27.0288 18.1307 25.75 16.7351V26.125C25.75 27.4847 25.3468 28.814 24.5914 29.9445C23.8359 31.0751 22.7622 31.9563 21.506 32.4767C20.2497 32.997 18.8674 33.1332 17.5338 32.8679C16.2001 32.6026 14.9751 31.9478 14.0136 30.9864C13.0522 30.0249 12.3974 28.7999 12.1321 27.4662C11.8668 26.1326 12.003 24.7503 12.5233 23.4941C13.0437 22.2378 13.9249 21.1641 15.0555 20.4086C16.186 19.6532 17.5153 19.25 18.875 19.25V22C18.0592 22 17.2616 22.2419 16.5833 22.6952C15.9049 23.1484 15.3762 23.7927 15.064 24.5464C14.7518 25.3002 14.6701 26.1296 14.8293 26.9297C14.9884 27.7299 15.3813 28.4649 15.9582 29.0418C16.5351 29.6187 17.2701 30.0116 18.0703 30.1707C18.8704 30.3299 19.6998 30.2482 20.4536 29.936C21.2073 29.6238 21.8516 29.0951 22.3048 28.4167C22.7581 27.7384 23 26.9408 23 26.125V11Z" fill="#FDBA74"/>
</svg>
